<?xml version="1.0" standalone="no"?><!DOCTYPE svg PUBLIC "-//W3C//DTD SVG 1.1//EN"
  "http://www.w3.org/Graphics/SVG/1.1/DTD/svg11.dtd">
<svg t="1704867396769" class="icon" viewBox="0 0 1034 1024" version="1.1" xmlns="http://www.w3.org/2000/svg"
     p-id="10221" xmlns:xlink="http://www.w3.org/1999/xlink" width="201.953125" height="200">
  <path
    d="M421.12 609.28c22.016 0 37.12 15.104 37.12 37.12s-15.104 37.12-37.12 37.12H261.12c-22.016 0-37.12-15.104-37.12-37.12S239.104 609.28 261.12 609.28h160z m0-256c22.016 0 37.12 15.104 37.12 37.12s-15.104 37.12-37.12 37.12H261.12c-22.016 0-37.12-15.104-37.12-37.12S239.104 353.28 261.12 353.28h160z m576 544c21.6064 0 37.12 17.7664 37.12 40.3456 0 22.016-15.104 37.12-37.12 37.12H37.12c-22.016 0-37.12-15.104-37.12-37.1712 0-22.016 15.104-37.12 37.12-37.12h58.88V227.1744c0-44.544 31.0272-84.5312 74.24-94.5664l294.1952-73.5232c32.256-9.6256 66.048-4.1472 90.7264 13.4656 19.8656 13.2096 31.0784 36.608 31.0784 61.8496V300.032l280.9344 72.6016c40.8064 10.24 71.0656 47.5136 71.0656 88.1664v436.48h58.88zM512 134.4c0-1.536 0-1.9968-0.1024-2.6112-0.1536-1.3824-0.512-2.304-0.256-2.4064-7.936-3.9424-16.2816-5.2224-28.416-2.816l-294.4512 76.8a25.6 25.6 0 0 0-18.5344 23.8592v670.0544H512v-762.88zM864 460.8c0-4.608-8.704-15.2064-15.36-17.408L586.24 374.5792v522.6496h277.76V460.8zM773.12 609.28c22.016 0 37.12 15.104 37.12 37.12s-15.104 37.12-37.12 37.12h-96c-22.016 0-37.12-15.104-37.12-37.12s15.104-37.12 37.12-37.12H773.12z"
    fill="#000000" p-id="10222"></path>
</svg>
